<?xml version="1.0" standalone="no"?>
<!DOCTYPE svg PUBLIC "-//W3C//DTD SVG 1.1//EN" "http://www.w3.org/Graphics/SVG/1.1/DTD/svg11.dtd" >
<svg xmlns="http://www.w3.org/2000/svg">
<metadata></metadata>
<defs>
<font id="agendabold" horiz-adv-x="1550" >
<font-face units-per-em="2048" ascent="1464" descent="-584" />
<missing-glyph horiz-adv-x="460" />
<glyph unicode="&#xfb01;" horiz-adv-x="1153" d="M23 682v246h143v55q0 229 130.5 360.5t356.5 131.5q132 0 219 -48l-22 -249q-77 45 -182 45q-101 0 -154 -58t-53 -153v-84h575v-928h-301v682h-274v-682h-295v682h-143z" />
<glyph unicode="&#xfb02;" horiz-adv-x="1282" d="M23 682v246h143v24q0 244 148.5 383.5t412.5 139.5q108 0 214.5 -33t176.5 -90v-1028q0 -62 33 -99.5t84 -48.5l-115 -213q-55 3 -107 26t-95.5 63t-70 104.5t-26.5 142.5v901q-49 27 -143 27q-98 0 -157.5 -67t-59.5 -175v-57h184l-20 -246h-164v-682h-295v682h-143z " />
<glyph horiz-adv-x="2048" />
<glyph horiz-adv-x="2048" />
<glyph unicode="&#xd;" horiz-adv-x="2048" />
<glyph unicode=" "  horiz-adv-x="460" />
<glyph unicode="&#x09;" horiz-adv-x="460" />
<glyph unicode="&#xa0;" horiz-adv-x="460" />
<glyph unicode="!" horiz-adv-x="548" d="M109 139q0 40 64.5 104t105.5 64t105.5 -64t64.5 -104q0 -41 -64.5 -104.5t-105.5 -63.5t-105.5 63.5t-64.5 104.5zM117 1397h315l-37 -1004l-243 51z" />
<glyph unicode="&#x22;" horiz-adv-x="745" d="M74 1458h231l-45 -575h-145zM440 1458h232l-43 -575h-146z" />
<glyph unicode="#" horiz-adv-x="923" d="M61 397v160h132l45 193h-113v159h149l93 398h174l-90 -398h145l90 398h174l-90 -398h94v-159h-133l-43 -193h111v-160h-150l-92 -397h-174l92 397h-145l-92 -397h-175l91 397h-93zM369 557h143l45 193h-145z" />
<glyph unicode="$" horiz-adv-x="1005" d="M74 952q0 150 90.5 253t249.5 126v178h157v-172q159 -11 267 -71l-25 -258q-57 36 -137.5 59t-161.5 23q-68 0 -107.5 -34.5t-39.5 -86.5q0 -48 39.5 -83t138.5 -71q183 -67 282 -178t99 -258q0 -165 -91.5 -274t-263.5 -132v-172h-157v170q-174 10 -326 107l25 258 q165 -113 342 -113q77 0 124.5 40t47.5 99q0 57 -43.5 97.5t-143.5 77.5q-181 68 -273.5 169t-92.5 246z" />
<glyph unicode="%" horiz-adv-x="1458" d="M59 1034q0 132 88.5 217.5t219.5 85.5q132 0 221.5 -85.5t89.5 -217.5q0 -135 -89.5 -221t-221.5 -86q-131 0 -219.5 86t-88.5 221zM147 63l1039 1283l123 -101l-1035 -1284zM258 1034q0 -53 32 -88t77 -35t77.5 35t32.5 88t-32.5 87t-77.5 34t-77 -34t-32 -87zM780 276 q0 132 90 218t222 86q131 0 220 -86t89 -218q0 -135 -89 -221t-220 -86q-132 0 -222 86t-90 221zM981 276q0 -53 33 -87.5t78 -34.5q44 0 76 34.5t32 87.5q0 52 -32 85.5t-76 33.5q-46 0 -78.5 -33t-32.5 -86z" />
<glyph unicode="&#x26;" horiz-adv-x="1282" d="M59 334q0 93 30.5 165t73.5 114.5t107 80.5q-137 140 -137 287q0 105 53 187.5t138.5 125.5t185.5 43q162 0 278.5 -100t116.5 -260q0 -107 -67 -196.5t-160 -141.5l205 -205q97 123 153 271l178 -181q-55 -138 -155 -266l258 -258h-350l-90 90q-172 -119 -388 -119 q-190 0 -310 105t-120 258zM324 346q0 -62 52.5 -104.5t125.5 -42.5q98 0 198 65l-256 256q-63 -31 -91.5 -72.5t-28.5 -101.5zM385 987q0 -38 28.5 -78.5t88.5 -97.5q69 38 108 84t39 88q0 51 -40 92t-97 41q-52 0 -89.5 -40t-37.5 -89z" />
<glyph unicode="'" horiz-adv-x="378" d="M74 1458h231l-45 -575h-145z" />
<glyph unicode="(" horiz-adv-x="606" d="M74 510q0 536 209 971l305 -60q-102 -201 -158.5 -445.5t-56.5 -492.5q0 -266 50 -499t159 -467l-306 61q-104 228 -153 444.5t-49 487.5z" />
<glyph unicode=")" horiz-adv-x="606" d="M20 -430q101 202 157 445t56 491q0 266 -49.5 499.5t-156.5 469.5l303 -66q105 -228 155 -444t50 -486q0 -535 -211 -971z" />
<glyph unicode="*" horiz-adv-x="905" d="M61 1040l25 213l274 -112l-16 256l217 49l-16 -301l231 98l115 -190l-291 -78l164 -201l-148 -162l-163 254l-138 -217l-198 94l194 232z" />
<glyph unicode="+" horiz-adv-x="925" d="M68 451v229h270v254h250v-254h270v-229h-270v-254h-250v254h-270z" />
<glyph unicode="," horiz-adv-x="450" d="M37 -291q57 66 98 145.5t53 145.5q-36 6 -84.5 57t-48.5 84q0 43 64.5 104.5t105.5 61.5q38 0 104 -60.5t66 -105.5q0 -84 -82 -221.5t-180 -226.5z" />
<glyph unicode="-" horiz-adv-x="671" d="M68 451v229h536v-229h-536z" />
<glyph unicode="." horiz-adv-x="450" d="M55 139q0 40 64.5 104t105.5 64t105.5 -64t64.5 -104q0 -41 -64.5 -104.5t-105.5 -63.5t-105.5 63.5t-64.5 104.5z" />
<glyph unicode="/" horiz-adv-x="1323" d="M53 104l1043 1282l174 -143l-1039 -1288z" />
<glyph unicode="0" horiz-adv-x="1144" d="M72 655q0 139 26.5 253t72.5 192.5t109.5 132.5t136.5 79t154 25q102 0 190.5 -40.5t159 -121t111.5 -214.5t41 -306q0 -174 -41 -309t-111.5 -215.5t-159 -121t-190.5 -40.5q-81 0 -154 24.5t-136.5 78.5t-109.5 133t-72.5 194t-26.5 256zM371 655q0 -207 57.5 -316.5 t142.5 -109.5q88 0 145.5 108.5t57.5 317.5q0 205 -58 314.5t-145 109.5q-85 0 -142.5 -110.5t-57.5 -313.5z" />
<glyph unicode="1" horiz-adv-x="702" d="M33 1028l22 260l504 45v-1333h-295v1049z" />
<glyph unicode="2" horiz-adv-x="993" d="M55 0v80q218 222 366 441.5t148 352.5q0 95 -53.5 148t-140.5 53q-128 0 -260 -84l-25 264q137 82 313 82q210 0 339.5 -114t129.5 -324q0 -100 -56.5 -228.5t-128 -231.5t-150.5 -189h403v-250h-885z" />
<glyph unicode="3" horiz-adv-x="884" d="M61 276q99 -51 230 -51q88 0 151.5 49t63.5 136q0 71 -56 122.5t-135 51.5q-23 0 -61 -6l-25 231q84 19 135.5 62t51.5 100q0 50 -36.5 82t-98.5 32q-97 0 -177 -38l-22 241q107 49 248 49q176 0 282.5 -88.5t106.5 -230.5q0 -91 -45 -161.5t-109 -98.5 q101 -29 177.5 -124.5t76.5 -234.5q0 -203 -136 -315.5t-380 -112.5q-119 0 -215 41z" />
<glyph unicode="4" horiz-adv-x="1064" d="M18 551l564 756h274v-764h139v-228h-139v-315h-278v315h-521zM291 543h287v266q0 65 6 133l-4 2q-41 -69 -93 -137z" />
<glyph unicode="5" horiz-adv-x="927" d="M90 285q108 -58 244 -58q92 0 153.5 50t61.5 129q0 85 -62 137.5t-157 52.5q-115 0 -203 -33l18 744h617l-23 -250h-307l-8 -234q12 2 39 2q101 0 192 -51.5t149 -148.5t58 -217q0 -199 -131.5 -318t-368.5 -119q-153 0 -245 45z" />
<glyph unicode="6" horiz-adv-x="1073" d="M72 463q0 260 154.5 504.5t398.5 388.5l303 -94q-146 -71 -277 -195t-192 -246q41 35 110 35q106 0 204.5 -50.5t165.5 -152.5t67 -233q0 -197 -132 -323t-331 -126q-130 0 -236 57t-170.5 170.5t-64.5 264.5zM369 428q0 -83 53.5 -137.5t126.5 -54.5q70 0 118 50.5 t48 127.5q0 82 -50 134t-128 52q-124 0 -162 -96q-6 -20 -6 -76z" />
<glyph unicode="7" horiz-adv-x="1001" d="M55 1057v250h946l-536 -1307h-311l444 1057h-543z" />
<glyph unicode="8" horiz-adv-x="1089" d="M72 377q0 115 69 204t146 121q-68 32 -118 111.5t-50 169.5q0 157 117.5 255.5t304.5 98.5q189 0 307.5 -99.5t118.5 -260.5q0 -84 -51 -159.5t-117 -108.5q79 -33 149 -124.5t70 -207.5q0 -187 -130.5 -297.5t-342.5 -110.5t-342.5 110.5t-130.5 297.5zM348 379 q0 -71 57 -119.5t132 -48.5q77 0 132.5 48.5t55.5 119.5q0 68 -61 118.5t-136 67.5q-70 -20 -125 -69.5t-55 -116.5zM393 967q0 -52 44 -94.5t116 -61.5q70 20 108.5 61.5t38.5 94.5q0 60 -44.5 98.5t-110.5 38.5q-64 0 -108 -39t-44 -98z" />
<glyph unicode="9" horiz-adv-x="1073" d="M68 889q0 197 131.5 322.5t330.5 125.5q130 0 236 -57t170.5 -170t64.5 -264q0 -260 -154.5 -505t-397.5 -388l-304 94q146 71 277 195t192 245q-40 -34 -110 -34q-79 0 -156 30t-139.5 84.5t-101.5 138.5t-39 183zM358 895q0 -81 50 -133.5t127 -52.5q125 0 163 96 q7 23 7 76q0 83 -54.5 137.5t-128.5 54.5q-69 0 -116.5 -50.5t-47.5 -127.5z" />
<glyph unicode=":" horiz-adv-x="450" d="M55 139q0 40 64.5 104t105.5 64t105.5 -64t64.5 -104q0 -41 -64.5 -104.5t-105.5 -63.5t-105.5 63.5t-64.5 104.5zM55 788q0 41 64.5 104.5t105.5 63.5t105.5 -63.5t64.5 -104.5q0 -40 -64.5 -103.5t-105.5 -63.5t-105.5 63.5t-64.5 103.5z" />
<glyph unicode=";" horiz-adv-x="450" d="M37 -291q57 66 98 145.5t53 145.5q-36 6 -84.5 57t-48.5 84q0 43 64.5 104.5t105.5 61.5q38 0 104 -60.5t66 -105.5q0 -84 -82 -221.5t-180 -226.5zM55 788q0 41 64.5 104.5t105.5 63.5t105.5 -63.5t64.5 -104.5q0 -40 -64.5 -103.5t-105.5 -63.5t-105.5 63.5 t-64.5 103.5z" />
<glyph unicode="&#x3c;" horiz-adv-x="716" d="M53 567l381 383l170 -170l-211 -213l211 -213l-168 -168z" />
<glyph unicode="=" horiz-adv-x="925" d="M68 250v227h790v-227h-790zM68 653v228h790v-228h-790z" />
<glyph unicode="&#x3e;" horiz-adv-x="716" d="M113 354l211 213l-211 213l170 170l381 -381l-381 -383z" />
<glyph unicode="?" horiz-adv-x="831" d="M45 1333q54 44 130 69t161 25q192 0 308 -105t116 -275q0 -97 -44 -178.5t-147 -198.5q-86 -99 -86 -201q0 -46 6 -76l-245 51q-15 58 -15 101q0 81 31 155t102 154q48 53 71.5 96.5t23.5 96.5q0 49 -39.5 86.5t-104.5 37.5q-124 0 -245 -98zM203 141q0 40 64.5 104 t105.5 64q42 0 106 -64t64 -104q0 -42 -64 -107t-106 -65q-41 0 -105.5 65.5t-64.5 106.5z" />
<glyph unicode="@" horiz-adv-x="1560" d="M72 543q0 215 111 398.5t301 290.5t413 107q262 0 427 -157t165 -398q0 -96 -28 -187t-78.5 -163t-126.5 -116t-164 -44q-56 0 -99.5 35t-50.5 97q-91 -130 -260 -130q-95 0 -167.5 75.5t-72.5 199.5q0 108 42.5 199.5t111 150t150.5 91t165 32.5q75 0 137.5 -23 t96.5 -59l-60 -391q-4 -24 -4 -37q0 -49 37 -49q63 0 119.5 97.5t56.5 228.5q0 175 -114.5 273.5t-302.5 98.5q-118 0 -229.5 -47.5t-196 -129t-136 -197t-51.5 -244.5q0 -98 31 -175t85 -125t123.5 -73t149.5 -25q143 0 230 68l-25 -188q-78 -56 -223 -56q-251 0 -407 159 t-156 413zM659 563q0 -48 22 -72t60 -24q51 0 94 53t58 137l29 158q-21 14 -50 14q-82 0 -147.5 -76.5t-65.5 -189.5z" />
<glyph unicode="A" horiz-adv-x="1288" d="M20 0l515 1317h219l514 -1317h-316l-102 272h-430l-101 -272h-299zM498 512h274l-94 262q-22 57 -41 133h-4q-12 -56 -41 -133z" />
<glyph unicode="B" horiz-adv-x="1116" d="M113 0v1307h438q159 0 271 -95.5t112 -250.5q0 -63 -29.5 -126.5t-79.5 -91.5q88 -28 158 -125.5t70 -211.5q0 -185 -128 -295.5t-319 -110.5h-493zM401 238h152q80 0 136 42.5t56 125.5q0 81 -56 125t-136 44h-152v-337zM401 809h101q61 0 102 32.5t41 98.5t-41 99.5 t-102 33.5h-101v-264z" />
<glyph unicode="C" horiz-adv-x="1214" d="M72 653q0 131 41 244t111 192.5t161.5 136t193 84t205.5 27.5q232 0 371 -80l-22 -276q-130 82 -312 82t-305 -113.5t-123 -296.5q0 -182 124.5 -294.5t313.5 -112.5q203 0 322 78l-27 -285q-120 -70 -342 -70q-104 0 -206 27.5t-193.5 84.5t-161 136.5t-110.5 192.5 t-41 243z" />
<glyph unicode="D" horiz-adv-x="1325" d="M113 0v1307h440q142 0 268.5 -45.5t222.5 -128t152.5 -207t56.5 -273.5t-56.5 -273.5t-152.5 -206.5t-222.5 -127.5t-268.5 -45.5h-440zM418 272h98q180 0 300 99.5t120 281.5t-120 281.5t-300 99.5h-98v-762z" />
<glyph unicode="E" horiz-adv-x="972" d="M113 0v1307h761v-260h-444v-261h363v-264h-363v-262h502v-260h-819z" />
<glyph unicode="F" horiz-adv-x="923" d="M113 0v1307h780v-260h-463v-261h381v-264h-381v-522h-317z" />
<glyph unicode="G" horiz-adv-x="1378" d="M72 653q0 131 41.5 244t111.5 192.5t162.5 136t194 84t206.5 27.5q257 0 416 -104l-24 -279q-149 109 -359 109q-120 0 -218 -50t-157 -146.5t-59 -221.5q0 -181 121 -293t303 -112q113 0 178 39v184h-237v244h528v-603q-170 -135 -483 -135q-109 0 -213.5 28t-197 85 t-162.5 137t-111 192t-41 242z" />
<glyph unicode="H" horiz-adv-x="1363" d="M113 0v1307h317v-516h506v516h315v-1307h-315v518h-506v-518h-317z" />
<glyph unicode="I" horiz-adv-x="583" d="M133 0v1307h318v-1307h-318z" />
<glyph unicode="J" horiz-adv-x="634" d="M-96 -111q142 25 211 119t69 281v1018h318v-1047q0 -111 -25 -203.5t-68 -157.5t-102.5 -113t-125 -75.5t-140.5 -40.5z" />
<glyph unicode="K" horiz-adv-x="1198" d="M113 0v1307h317v-562l401 562h347l-457 -650l471 -657h-369l-393 539v-539h-317z" />
<glyph unicode="L" horiz-adv-x="972" d="M113 0v1307h317v-1035h524v-272h-841z" />
<glyph unicode="M" horiz-adv-x="1748" d="M92 0l113 1307h258l285 -549q84 -164 131 -279h4q48 125 125 279l282 549h260l117 -1307h-311l-43 481q-13 165 -13 242h-4q-44 -120 -110 -248l-246 -479h-127l-248 479q-57 111 -110 246h-4q0 -80 -13 -240l-41 -481h-305z" />
<glyph unicode="N" horiz-adv-x="1452" d="M113 0v1307h256l442 -488q141 -157 213 -250l4 2q-6 117 -6 244v492h317v-1321h-159l-508 557q-105 115 -244 286l-4 -2q6 -138 6 -274v-553h-317z" />
<glyph unicode="O" d="M72 655q0 152 59 282t157 216.5t224.5 135t261.5 48.5q108 0 212 -30.5t193 -90t156 -140.5t105.5 -190t38.5 -231q0 -153 -59 -284t-157.5 -218t-225.5 -135.5t-263 -48.5q-135 0 -261.5 48.5t-224.5 135.5t-157 218t-59 284zM393 655q0 -178 113.5 -291.5t267.5 -113.5 t268.5 113.5t114.5 291.5q0 118 -55 212t-142 143t-186 49q-74 0 -142.5 -29.5t-121.5 -81t-85 -128t-32 -165.5z" />
<glyph unicode="P" horiz-adv-x="1046" d="M113 0v1307h479q114 0 209 -47t154 -138.5t59 -210.5t-59 -211t-154 -139t-209 -47h-174v-514h-305zM418 764h129q68 0 116 37.5t48 109.5q0 69 -48.5 107.5t-115.5 38.5h-129v-293z" />
<glyph unicode="Q" d="M72 653q0 153 59 283.5t157 217.5t225 136t263 49q135 0 261.5 -49t225 -136t157.5 -217.5t59 -283.5q0 -108 -34.5 -209t-92 -178.5t-132 -134t-155.5 -82.5v-4q49 -10 158 -68q103 -53 209 -53q74 0 131 23l-164 -248q-14 -4 -47 -4q-97 0 -180 24.5t-177 79.5 q-200 119 -311 176q-120 16 -229.5 69.5t-195 138t-136.5 207t-51 263.5zM395 653q0 -117 54.5 -210t141 -142t185.5 -49q151 0 265 113t114 288q0 89 -32 166t-85 129t-121.5 81.5t-140.5 29.5q-153 0 -267 -114.5t-114 -291.5z" />
<glyph unicode="R" horiz-adv-x="1193" d="M113 0v1307h487q174 0 298 -109t124 -287q0 -111 -57 -199t-144 -128l416 -584h-354l-353 514h-112v-514h-305zM418 764h135q68 0 116 37.5t48 109.5q0 69 -48.5 107.5t-115.5 38.5h-135v-293z" />
<glyph unicode="S" horiz-adv-x="1028" d="M59 385q189 -149 410 -149q87 0 134.5 33.5t47.5 92.5t-43 96t-164 79q-169 60 -258.5 164.5t-89.5 240.5q0 171 122 284t331 113q200 0 319 -77l-24 -267q-50 34 -124.5 58t-146.5 24q-81 0 -123 -31t-42 -81q0 -47 43 -81t157 -71q164 -55 263.5 -163.5t99.5 -256.5 q0 -196 -125.5 -310t-362.5 -114q-246 0 -395 111z" />
<glyph unicode="T" horiz-adv-x="1144" d="M20 1055v252h1104v-254h-393v-1053h-315v1055h-396z" />
<glyph unicode="U" horiz-adv-x="1357" d="M113 446v861h317v-832q0 -100 69.5 -162.5t182.5 -62.5q114 0 184 62.5t70 162.5v832h309v-861q0 -107 -44.5 -197t-121.5 -150.5t-180.5 -94t-220.5 -33.5q-156 0 -284 57t-204.5 166.5t-76.5 251.5z" />
<glyph unicode="V" horiz-adv-x="1210" d="M-6 1307h325l205 -576q40 -112 86 -291h4q46 179 86 291l205 576h301l-475 -1315h-260z" />
<glyph unicode="W" horiz-adv-x="1849" d="M4 1307h305l170 -529q48 -142 70 -262h4q27 130 70 262l172 529h274l170 -527q35 -111 68 -264h4q24 125 69 262l174 529h285l-436 -1315h-203l-190 577q-54 163 -86 291h-4q-36 -143 -86 -291l-191 -577h-203z" />
<glyph unicode="X" horiz-adv-x="1251" d="M25 0l419 664l-399 643h348l164 -265q49 -77 72 -131h4q26 57 74 131l163 265h330l-397 -635l418 -672h-349l-174 283q-31 51 -80 143h-4q-28 -56 -82 -143l-178 -283h-329z" />
<glyph unicode="Y" horiz-adv-x="1275" d="M-4 1307h338l215 -316q52 -75 94 -155h4q35 62 98 155l216 316h315l-485 -723v-584h-308v578z" />
<glyph unicode="Z" horiz-adv-x="1071" d="M45 0v76l350 641q92 170 185 317l-2 2h-500v271h930v-76l-353 -643q-71 -132 -182 -316l2 -2h555v-270h-985z" />
<glyph unicode="[" horiz-adv-x="702" d="M96 -459v1905h555v-248h-260v-1409h260v-248h-555z" />
<glyph unicode="\" horiz-adv-x="1333" d="M59 1243l174 143l1041 -1282l-176 -149z" />
<glyph unicode="]" horiz-adv-x="702" d="M57 -211h262v1409h-262v248h555v-1905h-555v248z" />
<glyph unicode="^" horiz-adv-x="819" d="M53 1171q97 44 192.5 126t164.5 186q71 -104 166 -186.5t192 -125.5l-150 -147q-125 58 -208 143q-88 -88 -207 -143z" />
<glyph unicode="_" horiz-adv-x="1126" d="M-2 -244h1132v-229h-1132v229z" />
<glyph unicode="`" horiz-adv-x="921" d="M227 1186l52 215q89 -85 213 -148.5t245 -97.5l-133 -131q-118 30 -202 65t-175 97z" />
<glyph unicode="a" horiz-adv-x="991" d="M59 276q0 125 88.5 206.5t227.5 95.5l184 18v33q0 96 -145 96q-77 0 -152 -18t-121 -45l-22 229q52 29 138 47t173 18q196 0 308 -97t112 -275v-267q0 -121 106 -137l-104 -209q-138 9 -197 105q-95 -105 -260 -105q-145 0 -240.5 83t-95.5 222zM322 272q0 -37 28 -63.5 t70 -26.5q57 0 102 40t45 97v87l-125 -13q-60 -6 -90 -40t-30 -81z" />
<glyph unicode="b" horiz-adv-x="1075" d="M102 70v1388h291v-520q49 18 113 18q135 0 250.5 -59t186.5 -169.5t71 -248.5q0 -235 -150.5 -371.5t-392.5 -136.5q-210 0 -369 99zM393 250q48 -19 99 -19q106 0 169.5 65.5t63.5 172.5q0 100 -66 164.5t-155 64.5q-68 0 -111 -26v-422z" />
<glyph unicode="c" horiz-adv-x="937" d="M61 463q0 112 42.5 206t113.5 156t163 96.5t193 34.5q178 0 295 -65l-24 -260q-101 59 -230 59q-107 0 -178 -62t-71 -165t76.5 -166.5t187.5 -63.5q119 0 229 58l-24 -268q-99 -52 -259 -52q-101 0 -194 35t-164 97t-113.5 156t-42.5 204z" />
<glyph unicode="d" horiz-adv-x="1128" d="M61 453q0 224 142 363.5t358 139.5q113 0 174 -38v540h291v-1458h-235l-7 68q-35 -45 -102.5 -69t-153.5 -24q-84 0 -166.5 33t-150 92.5t-109 151.5t-41.5 201zM350 467q0 -100 62.5 -165.5t154.5 -65.5q105 0 168 63v342q-60 57 -168 57q-92 0 -154.5 -65.5 t-62.5 -165.5z" />
<glyph unicode="e" horiz-adv-x="1017" d="M59 469q0 146 67 258.5t176.5 170.5t240.5 58q124 0 220.5 -53t145.5 -136t49 -179q0 -47 -10 -92l-121 -119h-462q20 -71 89.5 -123.5t182.5 -52.5q147 0 268 71l-26 -247q-110 -54 -277 -54q-152 0 -275 60.5t-195.5 175t-72.5 262.5zM354 569h328q2 6 2 21 q0 57 -39 98t-102 41q-68 0 -121 -45t-68 -115z" />
<glyph unicode="f" horiz-adv-x="751" d="M23 682v246h143v47q0 245 134 372.5t357 127.5q87 0 160 -27l-20 -250q-58 25 -135 25q-95 0 -148 -57.5t-53 -153.5v-84h237l-20 -246h-217v-682h-295v682h-143z" />
<glyph unicode="g" horiz-adv-x="993" d="M45 -137q0 97 50.5 166.5t129.5 95.5l-106 106q6 43 36.5 80t69.5 60q-56 40 -92.5 103t-36.5 138q0 154 102 250t279 96q63 0 137 -18q66 -16 134 -16q91 0 161 34l21 -235q-11 -9 -38.5 -15.5t-51.5 -5.5q16 -29 16 -79q0 -133 -85.5 -223.5t-219.5 -102.5 q-66 -3 -66 -37q0 -21 25 -29l149 -51q139 -47 210 -128t71 -206q0 -146 -122.5 -240.5t-321.5 -94.5t-325 101t-126 251zM305 -141q0 -56 48.5 -93.5t135.5 -37.5q84 0 132.5 33.5t48.5 80.5q0 38 -27.5 70t-75.5 45l-123 35q-61 -3 -100 -40t-39 -93zM346 625 q0 -51 38 -87t93 -36q54 0 92.5 36t38.5 87q0 52 -37.5 87.5t-93.5 35.5q-55 0 -93 -36t-38 -87z" />
<glyph unicode="h" horiz-adv-x="1085" d="M102 0v1458h297v-1v-1v-1v-1v-1v-1v-1v-1v-1v-1v-1v-1v-1v-1v-1v-1v-1v-1v-1v-1v-1v-1v-1v-1v-1v-1v-1v-1v-1v-1v-1v-1v-1v-1v-1v-1v-1v-1v-1v-1v-1v-1v-1v-1v-1v-1v-1v-1v-1v-1v-1v-1v-1v-1v-1v-1v-1v-1v-1v-1v-1v-1v-1v-1v-1v-1v-1v-1v-1v-1v-1v-1v-1v-1v-1v-1v-1v-1 v-1v-1v-1v-1v-1v-1v-1v-1v-1v-1v-1v-1v-1v-1v-1v-1v-1v-1v-1v-1v-1v-1v-1v-1v-1v-1v-1v-1v-1v-1v-1v-1v-1v-1v-1v-1v-2v-1v-1v-1v-1v-1v-1v-1v-1v-1v-2v-1v-1v-1v-1v-1v-1v-2v-1v-1v-1v-1v-1v-1v-2v-1v-1v-1v-1v-2v-1v-1v-1v-1v-2v-1v-1v-1v-1v-2v-1v-1v-1v-2v-1v-1v-1v-2 v-1v-1v-1v-2v-1v-1v-1v-2v-1v-1v-1v-2v-1v-1v-2v-1v-1v-1v-2v-1v-1v-2v-1v-1v-2v-1v-1v-2v-1v-1v-2v-1v-1v-2v-1v-1v-2v-1v-1v-2v-1v-2v-1v-1v-2v-1v-1v-2v-1v-2v-1v-1v-2v-1v-2v-1v-1v-2v-1v-2v-1v-2v-1v-1v-2v-1v-2v-1v-2v-1v-2v-1v-1v-2v-1v-2v-1v-2v-1v-2v-1v-2v-1v-2 v-1v-2v-1v-2v-1v-2v-1v-2v-1v-2v-1v-2v-1v-2v-1v-2v-1v-2v-1v-2v-1v-2v-2v-1v-2v-1v-2v-1v-2v-1v-2v-2v-1v-2v-1v-2v-1v-2v-2v-1v-2v-1v-2v-1v-2v-2v-1v-2v-1v-2v-2v-1v-2v-2v-1v-2v-1v-2v-2v-1v-2v-2v-1v-2v-2v-1v-2v-1v-2v-2v-1v-2v-2v-1v-2v-2v-1v-2v-2v-1v-2v-2v-2v-1 v-2v-2v-1v-2v-2v-1v-2v-2v-2v-1v-2v-2v-1v-2v-2v-2v-1v-2v-2v-2v-1v-2v-2v-2v-1v-2v-2v-2v-1v-2v-2v-2v-1v-2v-2v-2v-1v-2v-2v-2v-2v-1v-2v-2v-2v-2v-1v-2v-2v-2v-2v-2v-1v-2v-2v-2v-2v-1v-2v-2v-2v-2v-2v-2v-1v-2v-2v-2v-2v-2v-2v-1v-2v-2v-2v-2v-2v-2v-2v-2v-1v-2v-2v-2 v-2v-2v-2v-2v-2v-2v-1v-9q92 86 250 86q154 0 249 -91t95 -243v-618h-301v553q0 54 -37 91.5t-104 37.5q-68 0 -110 -38t-42 -95v-549h-297z" />
<glyph unicode="i" horiz-adv-x="538" d="M115 1233q0 38 58 97t95 59q38 0 97 -59t59 -97t-59 -96t-97 -58q-37 0 -95 58t-58 96zM119 0v928h303v-928h-303z" />
<glyph unicode="j" horiz-adv-x="536" d="M-57 -283q176 35 176 248v963h301v-983q0 -175 -98 -291.5t-250 -140.5zM113 1233q0 38 58.5 97t96.5 59q37 0 95.5 -59t58.5 -97t-58.5 -96t-95.5 -58q-38 0 -96.5 58t-58.5 96z" />
<glyph unicode="k" horiz-adv-x="1028" d="M102 0v1458h297v-909l281 379h317l-319 -445l348 -483h-350l-277 375v-375h-297z" />
<glyph unicode="l" horiz-adv-x="583" d="M123 295v1163h297v-1141q0 -62 32.5 -100t82.5 -49l-134 -209q-48 3 -96 26t-89.5 63.5t-67 105t-25.5 141.5z" />
<glyph unicode="m" horiz-adv-x="1642" d="M92 0v928h264l9 -92q38 51 107.5 83.5t162.5 32.5q173 0 264 -118q43 51 127 84.5t182 33.5q160 0 251 -88t91 -231v-633h-301v571q0 50 -36 79.5t-97 29.5q-63 0 -103 -31t-40 -82v-567h-301v571q0 50 -36.5 79.5t-100.5 29.5q-62 0 -102 -31t-40 -82v-567h-301z" />
<glyph unicode="n" horiz-adv-x="1079" d="M92 0v928h264l9 -92q85 116 278 116q154 0 249 -91t95 -243v-618h-301v553q0 54 -37 91.5t-104 37.5q-68 0 -110 -38t-42 -95v-549h-301z" />
<glyph unicode="o" horiz-adv-x="1132" d="M61 463q0 215 146 354t360 139q139 0 254 -62t182.5 -175.5t67.5 -255.5q0 -141 -67.5 -254.5t-182.5 -175.5t-254 -62q-140 0 -255.5 62t-183 175.5t-67.5 254.5zM352 463q0 -101 63 -168.5t152 -67.5q88 0 151.5 67.5t63.5 168.5q0 102 -63.5 170.5t-151.5 68.5 q-89 0 -152 -68t-63 -171z" />
<glyph unicode="p" horiz-adv-x="1128" d="M102 -473v1401h236l8 -68q35 45 102 68.5t152 23.5q84 0 166.5 -33t150 -92t109 -151t41.5 -201q0 -149 -65.5 -264.5t-179 -177.5t-255.5 -62q-111 0 -174 39v-483h-291zM393 287q65 -58 168 -58q93 0 155 65.5t62 166.5t-62 166t-155 65q-102 0 -168 -63v-342z" />
<glyph unicode="q" horiz-adv-x="1075" d="M61 469q0 146 70 258.5t184 170.5t250 58q138 0 238 -49l82 47h88v-1427h-291v463q-59 -19 -111 -19q-217 0 -363.5 138.5t-146.5 359.5zM350 467q0 -105 65.5 -171.5t155.5 -66.5q67 0 111 27v414q-50 26 -117 26q-90 0 -152.5 -64t-62.5 -165z" />
<glyph unicode="r" horiz-adv-x="774" d="M109 0v928h276l8 -146q79 162 324 162l22 -260h-24q-131 0 -219 -80t-88 -237v-367h-299z" />
<glyph unicode="s" horiz-adv-x="804" d="M53 311q60 -52 144 -83t170 -31q45 0 71.5 18.5t26.5 48.5q0 32 -24 51t-83 41q-131 45 -202.5 123.5t-71.5 184.5q0 129 95 210.5t247 81.5q79 0 148 -18t106 -41l-23 -227q-90 63 -213 63q-40 0 -63 -18t-23 -47t24 -47t87 -39q276 -87 276 -314q0 -128 -93 -212.5 t-273 -84.5q-90 0 -170 22.5t-129 55.5z" />
<glyph unicode="t" horiz-adv-x="796" d="M20 682v246h164v180l287 109v-289h291l-23 -246h-264v-336q0 -51 31.5 -79.5t83.5 -28.5q58 0 96 14l-22 -246q-49 -22 -142 -22q-153 0 -248.5 89.5t-95.5 229.5v379h-158z" />
<glyph unicode="u" horiz-adv-x="1079" d="M92 309v619h301v-553q0 -54 37.5 -91.5t104.5 -37.5q68 0 109.5 38t41.5 95v549h301v-928h-264l-8 92q-86 -117 -279 -117q-154 0 -249 91t-95 243z" />
<glyph unicode="v" horiz-adv-x="1001" d="M31 928h291l129 -353q36 -102 53 -176h4q11 43 53 176l131 353h279l-359 -936h-225z" />
<glyph unicode="w" horiz-adv-x="1499" d="M41 928h274l115 -350q35 -116 45 -175h4q28 116 47 175l115 350h227l117 -348q23 -74 45 -177h4q20 96 47 177l115 348h262l-323 -936h-205l-123 366q-34 96 -55 189h-4q-18 -81 -54 -187l-123 -368h-206z" />
<glyph unicode="x" horiz-adv-x="944" d="M31 0l274 463l-264 465h299l96 -164q37 -70 41 -82h4q2 4 45 82l95 164h280l-262 -447l274 -481h-301l-104 178q-29 56 -43 92h-4q-2 -5 -47 -92l-103 -178h-280z" />
<glyph unicode="y" horiz-adv-x="1034" d="M31 928h297l137 -363q31 -83 57 -180h4q17 72 56 178l139 365h283l-326 -848q-96 -250 -216 -391t-284 -181l-123 195q111 36 184.5 112.5t137.5 231.5z" />
<glyph unicode="z" horiz-adv-x="894" d="M57 0v57l224 414q62 117 120 205l-2 4h-307v248h709v-58l-226 -415q-43 -81 -120 -203l2 -4h374v-248h-774z" />
<glyph unicode="{" horiz-adv-x="768" d="M25 492q96 62 137 162.5t41 246.5q0 254 126.5 398.5t358.5 144.5l37 -240q-116 0 -172.5 -75.5t-56.5 -202.5q0 -158 -38 -262t-120 -172q82 -66 120 -171.5t38 -263.5q0 -127 56.5 -201.5t172.5 -74.5l-37 -242q-232 0 -358.5 145t-126.5 400q0 146 -41 246t-137 162z " />
<glyph unicode="|" horiz-adv-x="485" d="M129 -473v1931h227v-1931h-227z" />
<glyph unicode="}" horiz-adv-x="768" d="M45 -219q116 0 171.5 74.5t55.5 201.5q0 158 38 263.5t120 171.5q-82 68 -120 172t-38 262q0 127 -55.5 202.5t-171.5 75.5l37 240q231 0 358 -145t127 -398q0 -146 41 -246.5t137 -162.5q-96 -62 -137 -162t-41 -246q0 -254 -127 -399.5t-358 -145.5z" />
<glyph unicode="~" horiz-adv-x="831" d="M84 420l51 203q85 51 157 77t161 33l24 -141q132 21 273 104l-52 -200q-79 -53 -151.5 -79.5t-165.5 -33.5l-25 139q-134 -19 -272 -102z" />
<glyph unicode="&#xa1;" horiz-adv-x="548" d="M100 1169q0 41 64.5 104.5t105.5 63.5t105.5 -63.5t64.5 -104.5q0 -40 -64.5 -104t-105.5 -64t-105.5 64t-64.5 104zM117 -88l37 1003l243 -51l35 -952h-315z" />
<glyph unicode="&#xa2;" horiz-adv-x="937" d="M61 834q0 137 61.5 245t160.5 169t221 77v184h155v-186q122 -12 209 -59l-24 -263q-106 62 -230 62q-107 0 -178 -63t-71 -166q0 -102 77 -165t187 -63q117 0 229 56l-24 -269q-68 -35 -175 -47v-178h-155v178q-189 24 -316 156t-127 332z" />
<glyph unicode="&#xa3;" horiz-adv-x="899" d="M23 565v164h143v105q0 246 133 372.5t356 126.5q87 0 152 -30l-21 -246q-58 24 -141 24q-80 0 -131 -57.5t-51 -140.5v-154h260l-14 -164h-246v-69q0 -149 -43 -240q62 10 153 10q153 0 275 -39l-17 -250q-108 46 -280 46q-175 0 -275 -41l-213 112q103 160 103 410v61 h-143z" />
<glyph unicode="&#xa4;" horiz-adv-x="999" d="M70 272l129 125q-47 74 -47 170q0 89 43 164q1 0 -30.5 32.5t-62.5 64.5l-32 32l131 131l125 -125q77 49 174 49q96 0 170 -47l125 125l129 -131l-123 -125q47 -74 47 -170q0 -97 -49 -174l125 -125l-131 -131l-127 125q-78 -43 -166 -43q-91 0 -170 47l-129 -127z M322 567q0 -75 51.5 -127.5t126.5 -52.5t128.5 52.5t53.5 127.5q0 73 -53.5 125.5t-128.5 52.5t-126.5 -52t-51.5 -126z" />
<glyph unicode="&#xa5;" horiz-adv-x="1263" d="M-4 1307h334l215 -316q45 -62 94 -155h4q48 84 98 155l215 316h308l-310 -457h129v-166h-239l-66 -98v-29h305v-166h-305v-391h-295v391h-307v166h307v18l-69 109h-238v166h127z" />
<glyph unicode="&#xa6;" horiz-adv-x="485" d="M129 371h227v-844h-227v844zM129 614v844h227v-844h-227z" />
<glyph unicode="&#xa7;" horiz-adv-x="970" d="M84 946q0 167 120 278t318 111q201 0 326 -73l-25 -267q-124 80 -270 80q-82 0 -123 -31t-41 -81q0 -16 9.5 -39t23.5 -37l436 -426l-37 -322q74 -104 74 -221q0 -167 -119.5 -278t-318.5 -111q-200 0 -324 76l23 264q129 -80 272 -80q82 0 122 31t40 82q0 42 -31 75 l-438 426l37 322q-74 104 -74 221zM276 573l410 -401l16 125l-411 397z" />
<glyph unicode="&#xa8;" horiz-adv-x="921" d="M141 1159q0 32 51.5 84.5t83.5 52.5t84 -52.5t52 -84.5q0 -31 -52 -83t-84 -52t-83.5 52t-51.5 83zM508 1159q0 32 51.5 84.5t83.5 52.5q33 0 85 -52t52 -85q0 -31 -52 -83t-85 -52q-32 0 -83.5 52t-51.5 83z" />
<glyph unicode="&#xa9;" horiz-adv-x="1220" d="M61 512q0 158 73 283t198 193.5t278 68.5t277.5 -68.5t197 -193.5t72.5 -283q0 -156 -72.5 -280.5t-197.5 -193.5t-277 -69t-277.5 69t-198.5 194t-73 280zM207 512q0 -176 112 -294t291 -118q177 0 290.5 118.5t113.5 293.5q0 176 -113.5 294t-290.5 118 q-179 0 -291 -117.5t-112 -294.5zM350 510q0 129 89 210t214 81q105 0 168 -49l-14 -168q-53 39 -137 39q-51 0 -86 -31.5t-35 -83.5t36.5 -84.5t92.5 -32.5q73 0 135 43l-18 -180q-58 -35 -140 -35q-127 0 -216 81t-89 210z" />
<glyph unicode="&#xaa;" horiz-adv-x="817" d="M63 803q0 93 69.5 158.5t178.5 76.5l146 13v22q0 70 -111 70q-138 0 -219 -51l-16 192q40 23 110 38t139 15q158 0 249 -79.5t91 -223.5v-198q0 -95 91 -107l-89 -176q-114 6 -163 76q-36 -36 -91 -56t-114 -20q-118 0 -194.5 67.5t-76.5 182.5zM274 295q0 33 52 85 t84 52t83.5 -51.5t51.5 -85.5q0 -31 -51.5 -83t-83.5 -52t-84 52t-52 83zM283 793q0 -29 20 -49.5t51 -20.5q43 0 77 31t34 75v66l-98 -8q-41 -6 -62.5 -32.5t-21.5 -61.5z" />
<glyph unicode="&#xab;" horiz-adv-x="1007" d="M-16 567q212 145 356 379l149 -149q-61 -124 -170 -230q110 -107 170 -229l-149 -150q-147 239 -356 379zM457 567q216 147 358 379l150 -149q-62 -128 -168 -230q107 -103 168 -229l-150 -150q-145 237 -358 379z" />
<glyph unicode="&#xac;" horiz-adv-x="1095" d="M68 451v229h919v-442h-239v213h-680z" />
<glyph unicode="&#xad;" horiz-adv-x="671" d="M68 451v229h536v-229h-536z" />
<glyph unicode="&#xae;" horiz-adv-x="962" d="M61 922q0 180 120 297.5t300 117.5q179 0 299.5 -117.5t120.5 -297.5q0 -179 -121 -297.5t-299 -118.5q-179 0 -299.5 118.5t-120.5 297.5zM158 922q0 -140 92 -232t231 -92q137 0 229.5 92.5t92.5 231.5q0 141 -92 233t-230 92q-139 0 -231 -91.5t-92 -233.5zM332 680 v485h155q67 0 118.5 -42t51.5 -111q0 -38 -19 -70.5t-50 -52.5l110 -154l-96 -59l-123 184h-37v-180h-110zM442 954h35q28 0 46 15t18 43t-18 42.5t-46 14.5h-35v-115z" />
<glyph unicode="&#xaf;" horiz-adv-x="921" d="M252 1053v178h428v-178h-428z" />
<glyph unicode="&#xb0;" horiz-adv-x="552" d="M45 1112q0 95 68.5 162t162.5 67q96 0 164 -67t68 -162q0 -94 -68.5 -161.5t-163.5 -67.5q-94 0 -162.5 67.5t-68.5 161.5zM164 1112q0 -50 31.5 -81.5t80.5 -31.5q50 0 81.5 31.5t31.5 81.5t-31.5 81.5t-81.5 31.5q-49 0 -80.5 -31.5t-31.5 -81.5z" />
<glyph unicode="&#xb1;" horiz-adv-x="1941" d="M23 682v246h143v47q0 213 118 340t326 127q103 0 185 -35l-25 -250q-64 33 -145 33q-70 0 -117 -54.5t-47 -131.5v-76h362v24q0 244 149 383.5t414 139.5q108 0 215 -33t177 -90v-1028q0 -62 32.5 -99.5t83.5 -48.5l-114 -213q-55 3 -107 26t-95.5 63t-70 104.5 t-26.5 142.5v901q-49 27 -144 27q-98 0 -157.5 -67t-59.5 -175v-57h185l-21 -246h-164v-682h-297v682h-362v-682h-295v682h-143z" />
<glyph unicode="&#xb2;" horiz-adv-x="722" d="M39 502v55q154 129 255 261.5t101 209.5q0 57 -36 91t-99 34q-90 0 -172 -45l-18 172q99 47 215 47q152 0 239.5 -77.5t87.5 -217.5q0 -82 -59.5 -180t-153.5 -184h250v-166h-610z" />
<glyph unicode="&#xb3;" horiz-adv-x="616" d="M59 692q58 -37 158 -37q52 0 91.5 30t39.5 79q0 41 -29.5 66.5t-78.5 25.5q-23 0 -50 -6l-14 154q45 9 76 35t31 55q0 27 -20.5 43t-55.5 16q-63 0 -117 -31l-18 174q73 31 168 31q112 0 184 -55.5t72 -145.5q0 -49 -25 -89.5t-65 -61.5q60 -15 108.5 -72.5t48.5 -130.5 q0 -135 -91.5 -210t-240.5 -75q-38 0 -82.5 9t-70.5 22z" />
<glyph unicode="&#xb4;" horiz-adv-x="921" d="M180 1155q121 34 245.5 97.5t213.5 148.5l49 -215q-89 -62 -173 -96.5t-202 -65.5z" />
<glyph unicode="&#xb6;" horiz-adv-x="1030" d="M63 905q0 123 64 219t164.5 144.5t216.5 48.5h475v-250h-158v-1122q0 -175 -98 -291.5t-250 -140.5l-129 204q176 35 176 248v533h-16q-86 0 -166 28.5t-142 79.5t-99.5 129t-37.5 170z" />
<glyph unicode="&#xb7;" horiz-adv-x="450" d="M55 555q0 40 64.5 104t105.5 64t105.5 -64t64.5 -104q0 -41 -64.5 -105.5t-105.5 -64.5t-105.5 64.5t-64.5 105.5z" />
<glyph unicode="&#xb8;" horiz-adv-x="921" d="M227 -442l21 133q58 -41 133 -41q37 0 60.5 22.5t23.5 57.5q0 36 -26 58t-66 22q-38 0 -72 -7l31 197h102l-6 -55q77 -3 137 -63.5t60 -149.5q0 -103 -71 -161t-167 -58q-90 0 -160 45z" />
<glyph unicode="&#xb9;" horiz-adv-x="505" d="M45 1124l21 174l321 29v-825h-205v635z" />
<glyph unicode="&#xba;" horiz-adv-x="931" d="M63 946q0 170 116.5 280.5t287.5 110.5q170 0 286.5 -110.5t116.5 -280.5q0 -172 -116.5 -282.5t-286.5 -110.5q-171 0 -287.5 110.5t-116.5 282.5zM315 946q0 -74 45 -124t107 -50q63 0 107 50t44 124q0 73 -43.5 121.5t-107.5 48.5q-62 0 -107 -49t-45 -121zM334 295 q0 33 50 85t81 52q34 0 85.5 -51.5t51.5 -85.5q0 -31 -52 -83t-85 -52q-31 0 -81 52t-50 83z" />
<glyph unicode="&#xbb;" horiz-adv-x="1007" d="M43 338q64 131 170 229q-105 97 -170 230l150 149q142 -232 358 -379q-213 -142 -358 -379zM518 338q61 126 168 229q-106 102 -168 230l150 149q141 -231 356 -379q-211 -143 -356 -379z" />
<glyph unicode="&#xbc;" horiz-adv-x="1497" d="M45 1124l21 174l321 29v-825h-205v635zM141 66l1030 1269l111 -92l-1028 -1272zM774 362l365 451h196v-446h97v-152h-97v-215h-194v215h-338zM967 367h174v157q0 42 8 78l-6 2q-18 -41 -53 -84z" />
<glyph unicode="&#xbd;" horiz-adv-x="1622" d="M45 1124l21 174l321 29v-825h-205v635zM141 66l1030 1269l111 -92l-1028 -1272zM958 0v55q154 130 255.5 262.5t101.5 208.5q0 57 -36 91t-99 34q-90 0 -172 -45l-19 172q96 49 215 49q152 0 239 -78.5t87 -218.5q0 -82 -59.5 -180.5t-153.5 -183.5h252v-166h-611z" />
<glyph unicode="&#xbe;" horiz-adv-x="1554" d="M59 692q58 -37 158 -37q52 0 91.5 30t39.5 79q0 41 -29.5 66.5t-78.5 25.5q-23 0 -50 -6l-14 154q45 9 76 35t31 55q0 27 -20.5 43t-55.5 16q-63 0 -117 -31l-18 174q73 31 168 31q112 0 184 -55.5t72 -145.5q0 -49 -25 -89.5t-65 -61.5q60 -15 108.5 -72.5t48.5 -130.5 q0 -135 -91.5 -210t-240.5 -75q-38 0 -82.5 9t-70.5 22zM211 66l1030 1269l111 -92l-1028 -1272zM844 362l364 451h197v-446h96v-152h-96v-215h-195v215h-338zM1038 367h172v157q0 17 9 78l-5 2q-19 -37 -53 -84z" />
<glyph unicode="&#xbf;" horiz-adv-x="831" d="M72 262q0 99 44 183t144 194q86 96 86 201q0 55 -4 75l246 -51q14 -54 14 -100q0 -155 -133 -309q-49 -57 -71.5 -98.5t-22.5 -94.5q0 -49 39 -87t104 -38q122 0 244 99l24 -261q-54 -44 -129.5 -69t-160.5 -25q-193 0 -308.5 105.5t-115.5 275.5zM287 1167q0 42 65 107 t107 65q41 0 105.5 -65.5t64.5 -106.5q0 -40 -64.5 -104t-105.5 -64q-42 0 -107 64t-65 104z" />
<glyph unicode="&#xc0;" horiz-adv-x="1288" d="M20 0l515 1317h219l514 -1317h-316l-102 272h-430l-101 -272h-299zM319 1596l52 215q89 -85 213 -148.5t245 -97.5l-133 -131q-118 30 -202 65t-175 97zM498 512h274l-94 262q-22 57 -41 133h-4q-12 -56 -41 -133z" />
<glyph unicode="&#xc1;" horiz-adv-x="1288" d="M20 0l515 1317h219l514 -1317h-316l-102 272h-430l-101 -272h-299zM457 1565q122 34 245.5 97.5t212.5 147.5l50 -215q-88 -61 -172 -95.5t-203 -65.5zM498 512h274l-94 262q-22 57 -41 133h-4q-12 -56 -41 -133z" />
<glyph unicode="&#xc2;" horiz-adv-x="1288" d="M20 0l515 1317h219l514 -1317h-316l-102 272h-430l-101 -272h-299zM336 1559q84 38 164.5 107t140.5 159q60 -90 140.5 -159t164.5 -107l-127 -125q-108 51 -178 123q-70 -72 -178 -123zM498 512h274l-94 262q-22 57 -41 133h-4q-12 -56 -41 -133z" />
<glyph unicode="&#xc3;" horiz-adv-x="1288" d="M20 0l515 1317h219l514 -1317h-316l-102 272h-430l-101 -272h-299zM315 1470l52 203q87 51 158 77.5t161 33.5l23 -142q129 20 272 105l-49 -201q-80 -53 -153 -79t-167 -33l-24 139q-133 -19 -273 -103zM498 512h274l-94 262q-22 57 -41 133h-4q-12 -56 -41 -133z" />
<glyph unicode="&#xc4;" horiz-adv-x="1288" d="M20 0l515 1317h219l514 -1317h-316l-102 272h-430l-101 -272h-299zM327 1569q0 32 51.5 84.5t83.5 52.5t84 -52.5t52 -84.5q0 -31 -52 -83t-84 -52t-83.5 52t-51.5 83zM498 512h274l-94 262q-22 57 -41 133h-4q-12 -56 -41 -133zM694 1569q0 32 51.5 84.5t83.5 52.5 q33 0 85 -52t52 -85q0 -31 -52 -83t-85 -52q-32 0 -83.5 52t-51.5 83z" />
<glyph unicode="&#xc5;" horiz-adv-x="1288" d="M20 0l515 1317h219l514 -1317h-316l-102 272h-430l-101 -272h-299zM387 1657q0 105 76 179.5t182 74.5q105 0 180.5 -74.5t75.5 -179.5q0 -104 -76 -179t-180 -75q-106 0 -182 75t-76 179zM498 512h274l-94 262q-22 57 -41 133h-4q-12 -56 -41 -133zM520 1657 q0 -54 35 -89.5t90 -35.5q54 0 89.5 35.5t35.5 89.5q0 55 -35.5 90t-89.5 35q-55 0 -90 -35t-35 -90z" />
<glyph unicode="&#xc6;" horiz-adv-x="1699" d="M10 0l758 1307h834v-260h-447v-261h365v-264h-365v-262h502v-260h-795v272h-383l-155 -272h-314zM602 516h260v348q0 37 3 99t3 75h-4q-41 -109 -80 -178z" />
<glyph unicode="&#xc7;" horiz-adv-x="1214" d="M72 653q0 131 41 244t111 192.5t161.5 136t193 84t205.5 27.5q232 0 371 -80l-22 -276q-130 82 -312 82t-305 -113.5t-123 -296.5q0 -182 124.5 -294.5t313.5 -112.5q203 0 322 78l-27 -285q-112 -67 -338 -70l-4 -24q78 -3 138.5 -63.5t60.5 -149.5q0 -103 -71 -161 t-167 -58q-92 0 -159 45l20 133q56 -41 131 -41q38 0 61 22t23 58q0 37 -25.5 58.5t-66.5 21.5q-36 0 -70 -7l27 172q-95 13 -183.5 47t-167 92.5t-137 135t-92.5 180.5t-34 223z" />
<glyph unicode="&#xc8;" horiz-adv-x="972" d="M113 0v1307h761v-260h-444v-261h363v-264h-363v-262h502v-260h-819zM182 1595l51 215q89 -84 213 -147t246 -98l-133 -131q-119 31 -203 65t-174 96z" />
<glyph unicode="&#xc9;" horiz-adv-x="972" d="M113 0v1307h761v-260h-444v-261h363v-264h-363v-262h502v-260h-819zM321 1565q121 34 245.5 97.5t213.5 148.5l49 -215q-89 -62 -173 -96.5t-202 -65.5z" />
<glyph unicode="&#xca;" horiz-adv-x="972" d="M113 0v1307h761v-260h-444v-261h363v-264h-363v-262h502v-260h-819zM213 1559q84 38 164.5 107t140.5 159q60 -90 140.5 -159t164.5 -107l-127 -125q-110 52 -178 122q-68 -70 -178 -122z" />
<glyph unicode="&#xcb;" horiz-adv-x="972" d="M113 0v1307h761v-260h-444v-261h363v-264h-363v-262h502v-260h-819zM192 1569q0 32 51.5 84.5t83.5 52.5t84 -52.5t52 -84.5q0 -31 -52 -83t-84 -52t-83.5 52t-51.5 83zM559 1569q0 32 51.5 84.5t83.5 52.5q33 0 85 -52t52 -85q0 -31 -52 -83t-85 -52q-32 0 -83.5 52 t-51.5 83z" />
<glyph unicode="&#xcc;" horiz-adv-x="583" d="M0 1595l51 215q89 -84 213 -147t246 -98l-133 -131q-119 31 -203 65t-174 96zM133 0v1307h318v-1307h-318z" />
<glyph unicode="&#xcd;" horiz-adv-x="583" d="M74 1565q121 34 245.5 97.5t213.5 148.5l49 -215q-89 -62 -173 -96.5t-202 -65.5zM133 0v1307h318v-1307h-318z" />
<glyph unicode="&#xce;" horiz-adv-x="583" d="M-14 1559q84 38 164.5 107t140.5 159q60 -90 140.5 -159t164.5 -107l-127 -125q-110 52 -178 122q-68 -70 -178 -122zM133 0v1307h318v-1307h-318z" />
<glyph unicode="&#xcf;" horiz-adv-x="583" d="M-27 1569q0 32 52 84.5t84 52.5t83.5 -52.5t51.5 -84.5q0 -31 -51.5 -83t-83.5 -52t-84 52t-52 83zM133 0v1307h318v-1307h-318zM340 1569q0 32 51.5 84.5t83.5 52.5q33 0 85 -52t52 -85q0 -31 -52 -83t-85 -52q-32 0 -83.5 52t-51.5 83z" />
<glyph unicode="&#xd0;" horiz-adv-x="1368" d="M4 545v223h152v539h440q142 0 268.5 -45.5t222.5 -128t152.5 -207t56.5 -273.5t-56.5 -273.5t-152.5 -206.5t-222.5 -127.5t-268.5 -45.5h-440v545h-152zM461 272h98q180 0 300 99.5t120 281.5t-120 281.5t-300 99.5h-98v-266h207l-35 -223h-172v-273z" />
<glyph unicode="&#xd1;" horiz-adv-x="1452" d="M113 0v1307h256l442 -488q141 -157 213 -250l4 2q-6 117 -6 244v492h317v-1321h-159l-508 557q-105 115 -244 286l-4 -2q6 -138 6 -274v-553h-317zM385 1471l51 203q85 51 157.5 77t162.5 33l22 -141q131 20 272 104l-49 -200q-81 -54 -153.5 -80t-165.5 -33l-25 139 q-134 -19 -272 -102z" />
<glyph unicode="&#xd2;" d="M72 655q0 152 59 282t157 216.5t224.5 135t261.5 48.5q108 0 212 -30.5t193 -90t156 -140.5t105.5 -190t38.5 -231q0 -153 -59 -284t-157.5 -218t-225.5 -135.5t-263 -48.5q-135 0 -261.5 48.5t-224.5 135.5t-157 218t-59 284zM393 655q0 -178 113.5 -291.5t267.5 -113.5 t268.5 113.5t114.5 291.5q0 118 -55 212t-142 143t-186 49q-74 0 -142.5 -29.5t-121.5 -81t-85 -128t-32 -165.5zM438 1595l51 215q89 -84 213 -147t246 -98l-133 -131q-119 31 -203 65t-174 96z" />
<glyph unicode="&#xd3;" d="M72 655q0 152 59 282t157 216.5t224.5 135t261.5 48.5q108 0 212 -30.5t193 -90t156 -140.5t105.5 -190t38.5 -231q0 -153 -59 -284t-157.5 -218t-225.5 -135.5t-263 -48.5q-135 0 -261.5 48.5t-224.5 135.5t-157 218t-59 284zM393 655q0 -178 113.5 -291.5t267.5 -113.5 t268.5 113.5t114.5 291.5q0 118 -55 212t-142 143t-186 49q-74 0 -142.5 -29.5t-121.5 -81t-85 -128t-32 -165.5zM580 1565q122 34 245.5 97.5t212.5 147.5l49 -215q-89 -61 -172.5 -95.5t-201.5 -65.5z" />
<glyph unicode="&#xd4;" d="M72 655q0 152 59 282t157 216.5t224.5 135t261.5 48.5q108 0 212 -30.5t193 -90t156 -140.5t105.5 -190t38.5 -231q0 -153 -59 -284t-157.5 -218t-225.5 -135.5t-263 -48.5q-135 0 -261.5 48.5t-224.5 135.5t-157 218t-59 284zM393 655q0 -178 113.5 -291.5t267.5 -113.5 t268.5 113.5t114.5 291.5q0 118 -55 212t-142 143t-186 49q-74 0 -142.5 -29.5t-121.5 -81t-85 -128t-32 -165.5zM473 1559q84 38 164.5 107t140.5 159q60 -90 140.5 -159t164.5 -107l-127 -125q-110 52 -178 122q-68 -70 -178 -122z" />
<glyph unicode="&#xd5;" d="M72 655q0 152 59 282t157 216.5t224.5 135t261.5 48.5q108 0 212 -30.5t193 -90t156 -140.5t105.5 -190t38.5 -231q0 -153 -59 -284t-157.5 -218t-225.5 -135.5t-263 -48.5q-135 0 -261.5 48.5t-224.5 135.5t-157 218t-59 284zM393 655q0 -178 113.5 -291.5t267.5 -113.5 t268.5 113.5t114.5 291.5q0 118 -55 212t-142 143t-186 49q-74 0 -142.5 -29.5t-121.5 -81t-85 -128t-32 -165.5zM424 1471l51 203q85 51 157.5 77t162.5 33l22 -141q131 20 272 104l-49 -200q-81 -54 -153.5 -80t-165.5 -33l-25 139q-134 -19 -272 -102z" />
<glyph unicode="&#xd6;" d="M72 655q0 152 59 282t157 216.5t224.5 135t261.5 48.5q108 0 212 -30.5t193 -90t156 -140.5t105.5 -190t38.5 -231q0 -153 -59 -284t-157.5 -218t-225.5 -135.5t-263 -48.5q-135 0 -261.5 48.5t-224.5 135.5t-157 218t-59 284zM393 655q0 -178 113.5 -291.5t267.5 -113.5 t268.5 113.5t114.5 291.5q0 118 -55 212t-142 143t-186 49q-74 0 -142.5 -29.5t-121.5 -81t-85 -128t-32 -165.5zM456 1569q0 32 51.5 84.5t83.5 52.5t84 -52.5t52 -84.5q0 -31 -52 -83t-84 -52t-83.5 52t-51.5 83zM823 1569q0 32 51.5 84.5t83.5 52.5q33 0 85 -52t52 -85 q0 -31 -52 -83t-85 -52q-32 0 -83.5 52t-51.5 83z" />
<glyph unicode="&#xd7;" horiz-adv-x="899" d="M90 354l205 205l-205 207l156 156l205 -207l206 205l154 -154l-205 -205l207 -207l-156 -155l-206 204l-205 -204z" />
<glyph unicode="&#xd8;" d="M72 655q0 152 59 282t157 216.5t224.5 135t261.5 48.5q205 0 373 -100l110 135l119 -98l-104 -129q97 -93 152 -217.5t55 -272.5q0 -153 -59 -284t-157.5 -218t-225.5 -135.5t-263 -48.5q-201 0 -371 101l-108 -136l-121 101l105 127q-97 93 -152 218.5t-55 274.5z M369 655q0 -155 92 -268l512 633q-91 51 -199 51q-106 0 -198 -51t-149.5 -147.5t-57.5 -217.5zM582 289q90 -49 192 -49q106 0 198.5 50t151 146.5t58.5 218.5q0 150 -90 265z" />
<glyph unicode="&#xd9;" horiz-adv-x="1357" d="M113 446v861h317v-832q0 -100 69.5 -162.5t182.5 -62.5q114 0 184 62.5t70 162.5v832h309v-861q0 -107 -44.5 -197t-121.5 -150.5t-180.5 -94t-220.5 -33.5q-156 0 -284 57t-204.5 166.5t-76.5 251.5zM332 1595l51 215q89 -84 213 -147t246 -98l-133 -131 q-119 31 -203 65t-174 96z" />
<glyph unicode="&#xda;" horiz-adv-x="1357" d="M113 446v861h317v-832q0 -100 69.5 -162.5t182.5 -62.5q114 0 184 62.5t70 162.5v832h309v-861q0 -107 -44.5 -197t-121.5 -150.5t-180.5 -94t-220.5 -33.5q-156 0 -284 57t-204.5 166.5t-76.5 251.5zM520 1565q121 34 245.5 97.5t213.5 148.5l49 -215 q-89 -62 -173 -96.5t-202 -65.5z" />
<glyph unicode="&#xdb;" horiz-adv-x="1357" d="M113 446v861h317v-832q0 -100 69.5 -162.5t182.5 -62.5q114 0 184 62.5t70 162.5v832h309v-861q0 -107 -44.5 -197t-121.5 -150.5t-180.5 -94t-220.5 -33.5q-156 0 -284 57t-204.5 166.5t-76.5 251.5zM375 1559q84 38 164.5 107t140.5 159q60 -90 140.5 -159t164.5 -107 l-127 -125q-110 52 -178 122q-68 -70 -178 -122z" />
<glyph unicode="&#xdc;" horiz-adv-x="1357" d="M113 446v861h317v-832q0 -100 69.5 -162.5t182.5 -62.5q114 0 184 62.5t70 162.5v832h309v-861q0 -107 -44.5 -197t-121.5 -150.5t-180.5 -94t-220.5 -33.5q-156 0 -284 57t-204.5 166.5t-76.5 251.5zM365 1569q0 32 51.5 84.5t83.5 52.5t83.5 -52.5t51.5 -84.5 q0 -31 -51.5 -83t-83.5 -52t-83.5 52t-51.5 83zM731 1569q0 32 51.5 84.5t83.5 52.5q34 0 86 -52t52 -85q0 -31 -52.5 -83t-85.5 -52q-32 0 -83.5 52t-51.5 83z" />
<glyph unicode="&#xdd;" horiz-adv-x="1275" d="M-4 1307h338l215 -316q52 -75 94 -155h4q35 62 98 155l216 316h315l-485 -723v-584h-308v578zM461 1565q121 34 245.5 97.5t213.5 148.5l49 -215q-89 -62 -173 -96.5t-202 -65.5z" />
<glyph unicode="&#xde;" horiz-adv-x="1046" d="M113 0v1307h305v-152h174q176 0 299 -108.5t123 -286.5q0 -119 -59 -211t-154 -139.5t-209 -47.5h-174v-362h-305zM418 612h129q67 0 115.5 38t48.5 110q0 69 -48.5 107t-115.5 38h-129v-293z" />
<glyph unicode="&#xdf;" horiz-adv-x="1208" d="M113 0v946q0 249 122.5 389t346.5 140q214 0 335 -128t121 -323q0 -135 -39 -250q-102 0 -169.5 -29.5t-67.5 -76.5q0 -29 24 -47t86 -39q277 -88 277 -314q0 -128 -93.5 -212.5t-273.5 -84.5q-90 0 -167.5 21t-120.5 51v244q117 -90 276 -90q44 0 70 18.5t26 48.5 q0 32 -23.5 51.5t-82.5 40.5q-131 45 -203 123.5t-72 184.5q0 117 74 191t174 87q15 46 15 100q0 72 -48 128.5t-120 56.5q-83 0 -131 -66t-48 -174v-987h-288z" />
<glyph unicode="&#xe0;" horiz-adv-x="991" d="M59 276q0 125 88.5 206.5t227.5 95.5l184 18v33q0 96 -145 96q-77 0 -152 -18t-121 -45l-22 229q52 29 138 47t173 18q196 0 308 -97t112 -275v-267q0 -121 106 -137l-104 -209q-138 9 -197 105q-95 -105 -260 -105q-145 0 -240.5 83t-95.5 222zM152 1196l43 182 q74 -71 180 -125.5t209 -83.5l-113 -110q-101 26 -171.5 55t-147.5 82zM322 272q0 -37 28 -63.5t70 -26.5q57 0 102 40t45 97v87l-125 -13q-60 -6 -90 -40t-30 -81z" />
<glyph unicode="&#xe1;" horiz-adv-x="991" d="M59 276q0 125 88.5 206.5t227.5 95.5l184 18v33q0 96 -145 96q-77 0 -152 -18t-121 -45l-22 229q52 29 138 47t173 18q196 0 308 -97t112 -275v-267q0 -121 106 -137l-104 -209q-138 9 -197 105q-95 -105 -260 -105q-145 0 -240.5 83t-95.5 222zM256 1169 q103 29 209 83.5t180 125.5l43 -182q-76 -53 -147 -82t-172 -55zM322 272q0 -37 28 -63.5t70 -26.5q57 0 102 40t45 97v87l-125 -13q-60 -6 -90 -40t-30 -81z" />
<glyph unicode="&#xe2;" horiz-adv-x="991" d="M59 276q0 125 88.5 206.5t227.5 95.5l184 18v33q0 96 -145 96q-77 0 -152 -18t-121 -45l-22 229q52 29 138 47t173 18q196 0 308 -97t112 -275v-267q0 -121 106 -137l-104 -209q-138 9 -197 105q-95 -105 -260 -105q-145 0 -240.5 83t-95.5 222zM195 1165q71 32 140 91 t120 135q52 -77 120 -136t138 -90l-109 -106q-97 48 -149 104q-53 -56 -152 -104zM322 272q0 -37 28 -63.5t70 -26.5q57 0 102 40t45 97v87l-125 -13q-60 -6 -90 -40t-30 -81z" />
<glyph unicode="&#xe3;" horiz-adv-x="991" d="M59 276q0 125 88.5 206.5t227.5 95.5l184 18v33q0 96 -145 96q-77 0 -152 -18t-121 -45l-22 229q52 29 138 47t173 18q196 0 308 -97t112 -275v-267q0 -121 106 -137l-104 -209q-138 9 -197 105q-95 -105 -260 -105q-145 0 -240.5 83t-95.5 222zM193 1090l43 172 q72 44 133 66t139 28l18 -119q114 18 232 88l-41 -170q-69 -46 -131 -68t-142 -28l-20 119q-107 -14 -231 -88zM322 272q0 -37 28 -63.5t70 -26.5q57 0 102 40t45 97v87l-125 -13q-60 -6 -90 -40t-30 -81z" />
<glyph unicode="&#xe4;" horiz-adv-x="991" d="M59 276q0 125 88.5 206.5t227.5 95.5l184 18v33q0 96 -145 96q-77 0 -152 -18t-121 -45l-22 229q52 29 138 47t173 18q196 0 308 -97t112 -275v-267q0 -121 106 -137l-104 -209q-138 9 -197 105q-95 -105 -260 -105q-145 0 -240.5 83t-95.5 222zM186 1174q0 28 43.5 72 t71.5 44t71.5 -44t43.5 -72q0 -27 -44 -71t-71 -44t-71 44t-44 71zM322 272q0 -37 28 -63.5t70 -26.5q57 0 102 40t45 97v87l-125 -13q-60 -6 -90 -40t-30 -81zM498 1174q0 28 44 72t70 44q29 0 73 -44t44 -72q0 -27 -44 -71t-73 -44q-26 0 -70 44.5t-44 70.5z" />
<glyph unicode="&#xe5;" horiz-adv-x="991" d="M59 276q0 125 88.5 206.5t227.5 95.5l184 18v33q0 96 -145 96q-77 0 -152 -18t-121 -45l-22 229q52 29 138 47t173 18q196 0 308 -97t112 -275v-267q0 -121 106 -137l-104 -209q-138 9 -197 105q-95 -105 -260 -105q-145 0 -240.5 83t-95.5 222zM229 1249q0 89 65 152 t155 63q89 0 153 -63t64 -152t-64 -153t-153 -64q-90 0 -155 64t-65 153zM322 272q0 -37 28 -63.5t70 -26.5q57 0 102 40t45 97v87l-125 -13q-60 -6 -90 -40t-30 -81zM342 1249q0 -46 30.5 -76t76.5 -30t76 30t30 76t-30 75.5t-76 29.5t-76.5 -29.5t-30.5 -75.5z" />
<glyph unicode="&#xe6;" horiz-adv-x="1525" d="M59 272q0 128 87 206.5t231 92.5l182 19v37q0 98 -145 98q-77 0 -152 -18t-121 -45l-22 229q52 29 138 47t173 18q206 0 311 -108q130 108 310 108q185 0 299 -109.5t114 -258.5q0 -56 -8 -92l-121 -119h-463q20 -70 90.5 -121t186.5 -51q145 0 264 67l-27 -247 q-115 -54 -276 -54q-231 0 -383 133q-116 -133 -326 -133q-148 0 -245 81.5t-97 219.5zM322 268q0 -37 27.5 -61.5t70.5 -24.5q57 0 102 40t45 97v78l-123 -10q-63 -6 -92.5 -38t-29.5 -81zM862 569h328q2 6 2 21q0 57 -39 98t-102 41q-68 0 -121 -45t-68 -115z" />
<glyph unicode="&#xe7;" horiz-adv-x="937" d="M61 463q0 112 42.5 206t113.5 156t163 96.5t193 34.5q178 0 295 -65l-24 -260q-101 59 -230 59q-107 0 -178 -62t-71 -165t76.5 -166.5t187.5 -63.5q119 0 229 58l-24 -268q-91 -52 -252 -52l-2 -22q66 -3 117 -55t51 -127q0 -87 -60 -136t-143 -49q-80 0 -135 37l18 113 q45 -35 113 -35q31 0 50 19t19 48q0 30 -22 49t-56 19q-44 0 -61 -4l25 149q-186 27 -310.5 158t-124.5 328z" />
<glyph unicode="&#xe8;" horiz-adv-x="1017" d="M59 469q0 146 67 258.5t176.5 170.5t240.5 58q124 0 220.5 -53t145.5 -136t49 -179q0 -47 -10 -92l-121 -119h-462q20 -71 89.5 -123.5t182.5 -52.5q147 0 268 71l-26 -247q-110 -54 -277 -54q-152 0 -275 60.5t-195.5 175t-72.5 262.5zM268 1196l43 182 q77 -72 182.5 -126t208.5 -83l-114 -110q-102 26 -173 55t-147 82zM354 569h328q2 6 2 21q0 57 -39 98t-102 41q-68 0 -121 -45t-68 -115z" />
<glyph unicode="&#xe9;" horiz-adv-x="1017" d="M59 469q0 146 67 258.5t176.5 170.5t240.5 58q124 0 220.5 -53t145.5 -136t49 -179q0 -47 -10 -92l-121 -119h-462q20 -71 89.5 -123.5t182.5 -52.5q147 0 268 71l-26 -247q-110 -54 -277 -54q-152 0 -275 60.5t-195.5 175t-72.5 262.5zM354 569h328q2 6 2 21 q0 57 -39 98t-102 41q-68 0 -121 -45t-68 -115zM379 1169q103 29 208.5 83t182.5 126l41 -182q-76 -53 -146.5 -82t-170.5 -55z" />
<glyph unicode="&#xea;" horiz-adv-x="1017" d="M59 469q0 146 67 258.5t176.5 170.5t240.5 58q124 0 220.5 -53t145.5 -136t49 -179q0 -47 -10 -92l-121 -119h-462q20 -71 89.5 -123.5t182.5 -52.5q147 0 268 71l-26 -247q-110 -54 -277 -54q-152 0 -275 60.5t-195.5 175t-72.5 262.5zM281 1165q71 32 140 91t120 135 q51 -76 120 -135t140 -91l-109 -106q-97 47 -151 104q-53 -56 -152 -104zM354 569h328q2 6 2 21q0 57 -39 98t-102 41q-68 0 -121 -45t-68 -115z" />
<glyph unicode="&#xeb;" horiz-adv-x="1017" d="M59 469q0 146 67 258.5t176.5 170.5t240.5 58q124 0 220.5 -53t145.5 -136t49 -179q0 -47 -10 -92l-121 -119h-462q20 -71 89.5 -123.5t182.5 -52.5q147 0 268 71l-26 -247q-110 -54 -277 -54q-152 0 -275 60.5t-195.5 175t-72.5 262.5zM266 1174q0 28 43.5 72t71.5 44 t71.5 -44t43.5 -72q0 -27 -44 -71t-71 -44t-71 44t-44 71zM354 569h328q2 6 2 21q0 57 -39 98t-102 41q-68 0 -121 -45t-68 -115zM578 1174q0 28 44 72t70 44q29 0 73 -44t44 -72q0 -27 -44 -71t-73 -44q-26 0 -70 44.5t-44 70.5z" />
<glyph unicode="&#xec;" horiz-adv-x="538" d="M0 1196l43 182q77 -72 182.5 -126t208.5 -83l-115 -110q-100 26 -170.5 55t-148.5 82zM119 0v928h303v-928h-303z" />
<glyph unicode="&#xed;" horiz-adv-x="538" d="M109 1169q103 29 209 83.5t180 125.5l43 -182q-76 -53 -147 -82t-173 -55zM119 0v928h303v-928h-303z" />
<glyph unicode="&#xee;" horiz-adv-x="538" d="M10 1165q71 32 140 91t120 135q52 -77 120 -136t138 -90l-108 -106q-99 49 -150 104q-54 -57 -151 -104zM119 0v928h303v-928h-303z" />
<glyph unicode="&#xef;" horiz-adv-x="538" d="M-2 1174q0 28 43.5 72t71.5 44t71 -44t43 -72q0 -27 -43.5 -71t-70.5 -44t-71 44t-44 71zM119 0v928h303v-928h-303zM309 1174q0 28 43.5 72t71.5 44q29 0 73 -44t44 -72q0 -27 -44 -71t-73 -44q-27 0 -71 44t-44 71z" />
<glyph unicode="&#xf0;" horiz-adv-x="1075" d="M61 418q0 143 70.5 246t187.5 155q100 47 216 70l-68 160l-158 -64l-84 209l156 63l-84 201h319l37 -92l127 51l84 -209l-123 -49l217 -518q46 -110 46 -201q0 -212 -131.5 -341.5t-342.5 -129.5q-105 0 -193.5 35t-148.5 95.5t-93.5 143t-33.5 175.5zM352 420 q0 -79 50.5 -131.5t125.5 -52.5q77 0 128 55t51 143q0 68 -74 213q-83 -11 -148 -41q-63 -23 -98 -71.5t-35 -114.5z" />
<glyph unicode="&#xf1;" horiz-adv-x="1079" d="M92 0v928h264l9 -92q85 116 278 116q154 0 249 -91t95 -243v-618h-301v553q0 54 -37 91.5t-104 37.5q-68 0 -110 -38t-42 -95v-549h-301zM252 1090l43 172q72 44 133 66t139 28l19 -119q113 17 231 88l-41 -170q-70 -46 -131 -68t-141 -28l-21 119q-107 -14 -231 -88z " />
<glyph unicode="&#xf2;" horiz-adv-x="1132" d="M61 463q0 215 146 354t360 139q139 0 254 -62t182.5 -175.5t67.5 -255.5q0 -141 -67.5 -254.5t-182.5 -175.5t-254 -62q-140 0 -255.5 62t-183 175.5t-67.5 254.5zM287 1196l43 182q74 -71 180 -125.5t209 -83.5l-113 -110q-101 26 -171.5 55t-147.5 82zM352 463 q0 -101 63 -168.5t152 -67.5q88 0 151.5 67.5t63.5 168.5q0 102 -63.5 170.5t-151.5 68.5q-89 0 -152 -68t-63 -171z" />
<glyph unicode="&#xf3;" horiz-adv-x="1132" d="M61 463q0 215 146 354t360 139q139 0 254 -62t182.5 -175.5t67.5 -255.5q0 -141 -67.5 -254.5t-182.5 -175.5t-254 -62q-140 0 -255.5 62t-183 175.5t-67.5 254.5zM352 463q0 -101 63 -168.5t152 -67.5q88 0 151.5 67.5t63.5 168.5q0 102 -63.5 170.5t-151.5 68.5 q-89 0 -152 -68t-63 -171zM420 1169q103 29 209 83.5t180 125.5l43 -182q-76 -53 -147 -82t-173 -55z" />
<glyph unicode="&#xf4;" horiz-adv-x="1132" d="M61 463q0 215 146 354t360 139q139 0 254 -62t182.5 -175.5t67.5 -255.5q0 -141 -67.5 -254.5t-182.5 -175.5t-254 -62q-140 0 -255.5 62t-183 175.5t-67.5 254.5zM305 1165q71 32 140 91t120 135q52 -77 120 -136t138 -90l-108 -106q-99 49 -150 104q-54 -57 -151 -104z M352 463q0 -101 63 -168.5t152 -67.5q88 0 151.5 67.5t63.5 168.5q0 102 -63.5 170.5t-151.5 68.5q-89 0 -152 -68t-63 -171z" />
<glyph unicode="&#xf5;" horiz-adv-x="1132" d="M61 463q0 215 146 354t360 139q139 0 254 -62t182.5 -175.5t67.5 -255.5q0 -141 -67.5 -254.5t-182.5 -175.5t-254 -62q-140 0 -255.5 62t-183 175.5t-67.5 254.5zM285 1090l45 172q72 44 133 66t137 28l21 -119q109 17 231 88l-43 -170q-69 -45 -130.5 -67.5 t-139.5 -28.5l-21 119q-109 -15 -233 -88zM352 463q0 -101 63 -168.5t152 -67.5q88 0 151.5 67.5t63.5 168.5q0 102 -63.5 170.5t-151.5 68.5q-89 0 -152 -68t-63 -171z" />
<glyph unicode="&#xf6;" horiz-adv-x="1132" d="M61 463q0 215 146 354t360 139q139 0 254 -62t182.5 -175.5t67.5 -255.5q0 -141 -67.5 -254.5t-182.5 -175.5t-254 -62q-140 0 -255.5 62t-183 175.5t-67.5 254.5zM293 1174q0 28 43.5 72t71.5 44t71 -44t43 -72q0 -27 -43.5 -71t-70.5 -44t-71 44t-44 71zM352 463 q0 -101 63 -168.5t152 -67.5q88 0 151.5 67.5t63.5 168.5q0 102 -63.5 170.5t-151.5 68.5q-89 0 -152 -68t-63 -171zM604 1174q0 28 43.5 72t71.5 44q29 0 73 -44t44 -72q0 -27 -44 -71t-73 -44q-27 0 -71 44t-44 71z" />
<glyph unicode="&#xf7;" horiz-adv-x="925" d="M68 451v229h790v-229h-790zM324 236q0 34 52.5 86.5t86.5 52.5q32 0 84.5 -52.5t52.5 -86.5t-52.5 -87t-84.5 -53q-34 0 -86.5 53t-52.5 87zM324 895q0 34 52.5 86.5t86.5 52.5q32 0 84.5 -52.5t52.5 -86.5t-52.5 -86.5t-84.5 -52.5q-34 0 -86.5 52.5t-52.5 86.5z" />
<glyph unicode="&#xf8;" horiz-adv-x="1126" d="M61 463q0 215 146 354t360 139q143 0 258 -65l82 102l101 -84l-78 -96q141 -138 141 -350q0 -141 -67.5 -254.5t-182.5 -175.5t-254 -62q-142 0 -262 68l-84 -105l-100 84l80 99q-140 140 -140 346zM322 463q0 -84 38 -146l314 385q-50 27 -107 27q-100 0 -172.5 -75.5 t-72.5 -190.5zM457 225q54 -26 110 -26q99 0 172.5 75.5t73.5 188.5q0 83 -43 151z" />
<glyph unicode="&#xf9;" horiz-adv-x="1079" d="M92 309v619h301v-553q0 -54 37.5 -91.5t104.5 -37.5q68 0 109.5 38t41.5 95v549h301v-928h-264l-8 92q-86 -117 -279 -117q-154 0 -249 91t-95 243zM250 1196l43 182q77 -72 182.5 -126t208.5 -83l-115 -110q-100 26 -170.5 55t-148.5 82z" />
<glyph unicode="&#xfa;" horiz-adv-x="1079" d="M92 309v619h301v-553q0 -54 37.5 -91.5t104.5 -37.5q68 0 109.5 38t41.5 95v549h301v-928h-264l-8 92q-86 -117 -279 -117q-154 0 -249 91t-95 243zM397 1169q103 29 208.5 83t182.5 126l41 -182q-76 -53 -146.5 -82t-170.5 -55z" />
<glyph unicode="&#xfb;" horiz-adv-x="1079" d="M92 309v619h301v-553q0 -54 37.5 -91.5t104.5 -37.5q68 0 109.5 38t41.5 95v549h301v-928h-264l-8 92q-86 -117 -279 -117q-154 0 -249 91t-95 243zM281 1165q71 32 140 91t120 135q51 -76 120 -135t140 -91l-109 -106q-97 47 -151 104q-53 -56 -152 -104z" />
<glyph unicode="&#xfc;" horiz-adv-x="1079" d="M92 309v619h301v-553q0 -54 37.5 -91.5t104.5 -37.5q68 0 109.5 38t41.5 95v549h301v-928h-264l-8 92q-86 -117 -279 -117q-154 0 -249 91t-95 243zM272 1174q0 28 43.5 72t71.5 44t71.5 -44t43.5 -72q0 -27 -44 -71t-71 -44t-71 44t-44 71zM584 1174q0 28 44 72t70 44 q29 0 73 -44t44 -72q0 -27 -44 -71t-73 -44q-26 0 -70 44.5t-44 70.5z" />
<glyph unicode="&#xfd;" horiz-adv-x="1034" d="M31 928h297l137 -363q31 -83 57 -180h4q17 72 56 178l139 365h283l-326 -848q-96 -250 -216 -391t-284 -181l-123 195q111 36 184.5 112.5t137.5 231.5zM381 1169q103 29 209 83.5t180 125.5l43 -182q-76 -53 -147 -82t-172 -55z" />
<glyph unicode="&#xfe;" horiz-adv-x="1128" d="M102 -473v1931h291v-557q79 51 207 51q84 0 166.5 -33t150 -92t109 -151t41.5 -201q0 -149 -65.5 -264.5t-179 -177.5t-255.5 -62q-111 0 -174 39v-483h-291zM393 287q65 -58 168 -58q93 0 155 65.5t62 166.5t-62 166t-155 65q-102 0 -168 -63v-342z" />
<glyph unicode="&#xff;" horiz-adv-x="1034" d="M31 928h297l137 -363q31 -83 57 -180h4q17 72 56 178l139 365h283l-326 -848q-96 -250 -216 -391t-284 -181l-123 195q111 36 184.5 112.5t137.5 231.5zM252 1167q0 28 43.5 72.5t71.5 44.5t71 -44.5t43 -72.5q0 -27 -43.5 -70.5t-70.5 -43.5t-71 43.5t-44 70.5z M563 1167q0 28 43.5 72.5t71.5 44.5q29 0 73 -44.5t44 -72.5q0 -27 -44 -70.5t-73 -43.5q-28 0 -71.5 43.5t-43.5 70.5z" />
<glyph unicode="&#x152;" horiz-adv-x="1935" d="M72 655q0 153 59 283t157 216t224.5 134.5t261.5 48.5q195 0 344 -98l2 68h717v-260h-446v-261h364v-264h-364v-262h503v-260h-774l-2 70q-144 -99 -344 -99q-135 0 -261.5 48.5t-224.5 134.5t-157 217t-59 284zM395 655q0 -174 113 -285.5t270 -111.5q89 0 173.5 34 t140.5 91v543q-56 57 -140 91t-174 34q-157 0 -270 -111t-113 -285z" />
<glyph unicode="&#x153;" horiz-adv-x="1728" d="M59 465q0 142 68.5 255t184 174.5t255.5 61.5q102 0 194 -35t157 -100q64 65 151.5 100t183.5 35q185 0 300.5 -109.5t115.5 -258.5q0 -47 -10 -92l-121 -119h-461q17 -70 87.5 -121t187.5 -51q148 0 264 67l-27 -247q-114 -56 -276 -56q-115 0 -216 37.5t-173 106.5 q-66 -68 -159 -105t-198 -37q-214 0 -361 139t-147 355zM352 463q0 -101 63 -168.5t152 -67.5q88 0 151.5 67.5t63.5 168.5q0 102 -63.5 170.5t-151.5 68.5q-89 0 -152 -68t-63 -171zM1067 569h328q0 3 1 10t1 11q0 57 -40.5 98t-103.5 41q-67 0 -119 -44.5t-67 -115.5z" />
<glyph unicode="&#x178;" horiz-adv-x="1275" d="M-4 1307h338l215 -316q52 -75 94 -155h4q35 62 98 155l216 316h315l-485 -723v-584h-308v578zM317 1562q0 32 51.5 84.5t83.5 52.5t84 -52.5t52 -84.5q0 -31 -52 -83t-84 -52t-83.5 52t-51.5 83zM684 1562q0 32 51.5 84.5t83.5 52.5q33 0 85 -52t52 -85q0 -31 -52 -83 t-85 -52q-32 0 -83.5 52t-51.5 83z" />
<glyph unicode="&#x2c6;" horiz-adv-x="921" d="M152 1149q84 38 164.5 107t140.5 159q60 -90 140.5 -159t164.5 -107l-127 -125q-108 51 -178 123q-70 -72 -178 -123z" />
<glyph unicode="&#x2dc;" horiz-adv-x="921" d="M123 1061l51 203q85 51 157.5 77t162.5 33l22 -141q131 20 272 104l-49 -200q-81 -54 -153.5 -80t-165.5 -33l-25 139q-134 -19 -272 -102z" />
<glyph unicode="&#x2000;" horiz-adv-x="955" />
<glyph unicode="&#x2001;" horiz-adv-x="1911" />
<glyph unicode="&#x2002;" horiz-adv-x="955" />
<glyph unicode="&#x2003;" horiz-adv-x="1911" />
<glyph unicode="&#x2004;" horiz-adv-x="637" />
<glyph unicode="&#x2005;" horiz-adv-x="477" />
<glyph unicode="&#x2006;" horiz-adv-x="318" />
<glyph unicode="&#x2007;" horiz-adv-x="318" />
<glyph unicode="&#x2008;" horiz-adv-x="238" />
<glyph unicode="&#x2009;" horiz-adv-x="382" />
<glyph unicode="&#x200a;" horiz-adv-x="106" />
<glyph unicode="&#x2010;" horiz-adv-x="671" d="M68 451v229h536v-229h-536z" />
<glyph unicode="&#x2011;" horiz-adv-x="671" d="M68 451v229h536v-229h-536z" />
<glyph unicode="&#x2012;" horiz-adv-x="671" d="M68 451v229h536v-229h-536z" />
<glyph unicode="&#x2013;" horiz-adv-x="1208" d="M68 451v229h1073v-229h-1073z" />
<glyph unicode="&#x2014;" horiz-adv-x="1744" d="M68 451v229h1611v-229h-1611z" />
<glyph unicode="&#x2018;" horiz-adv-x="450" d="M57 1020q0 84 81 221.5t177 224.5l99 -16q-59 -68 -100.5 -146.5t-51.5 -142.5q36 -6 84.5 -57t48.5 -84q0 -44 -64.5 -106t-105.5 -62q-38 0 -103 61.5t-65 106.5z" />
<glyph unicode="&#x2019;" horiz-adv-x="450" d="M37 877q57 66 98 145t53 145q-36 6 -84.5 57.5t-48.5 84.5q0 44 64.5 105t105.5 61q38 0 104 -60.5t66 -105.5q0 -84 -82 -222t-180 -227z" />
<glyph unicode="&#x201a;" horiz-adv-x="450" d="M37 -291q57 66 98 145.5t53 145.5q-36 6 -84.5 57t-48.5 84q0 43 64.5 104.5t105.5 61.5q38 0 104 -60.5t66 -105.5q0 -84 -82 -221.5t-180 -226.5z" />
<glyph unicode="&#x201c;" horiz-adv-x="870" d="M57 1020q0 84 81 221.5t177 224.5l99 -16q-59 -68 -100.5 -146.5t-51.5 -142.5q36 -6 84.5 -57t48.5 -84q0 -44 -64.5 -106t-105.5 -62q-38 0 -103 61.5t-65 106.5zM477 1020q0 84 81 222t179 226l99 -18q-58 -67 -100 -145.5t-54 -141.5q36 -8 85.5 -59t49.5 -84 q0 -44 -65 -106t-105 -62q-38 0 -104 61.5t-66 106.5z" />
<glyph unicode="&#x201d;" horiz-adv-x="872" d="M37 877q57 66 98 145t53 145q-36 6 -84.5 57.5t-48.5 84.5q0 44 64.5 105t105.5 61q37 0 103.5 -60.5t66.5 -105.5q0 -84 -82 -222t-180 -227zM457 879q58 67 99.5 145t53.5 143q-37 6 -86 58t-49 84q0 44 64.5 105t105.5 61q38 0 104 -60.5t66 -105.5q0 -83 -82 -221.5 t-178 -227.5z" />
<glyph unicode="&#x201e;" horiz-adv-x="872" d="M31 -291q57 67 98 146.5t53 144.5q-36 6 -84.5 57t-48.5 84q0 43 64.5 104.5t105.5 61.5q37 0 103.5 -60.5t66.5 -105.5q0 -84 -82 -221.5t-180 -226.5zM451 -289q58 67 99.5 145.5t53.5 143.5q-37 6 -86 57t-49 84q0 43 64.5 104.5t105.5 61.5q38 0 104 -60.5t66 -105.5 q0 -84 -81.5 -221.5t-178.5 -226.5z" />
<glyph unicode="&#x2022;" horiz-adv-x="860" d="M78 563q0 150 101.5 247t250.5 97t251.5 -97t102.5 -247q0 -151 -102.5 -248.5t-251.5 -97.5t-250.5 97.5t-101.5 248.5z" />
<glyph unicode="&#x2026;" horiz-adv-x="1290" d="M55 139q0 40 64.5 104t105.5 64t105.5 -64t64.5 -104q0 -41 -64.5 -104.5t-105.5 -63.5t-105.5 63.5t-64.5 104.5zM475 139q0 40 64 104t106 64q41 0 105.5 -64t64.5 -104q0 -41 -64.5 -104.5t-105.5 -63.5q-43 0 -106.5 63.5t-63.5 104.5zM895 139q0 40 64.5 104 t105.5 64t105.5 -64t64.5 -104q0 -41 -64.5 -104.5t-105.5 -63.5t-105.5 63.5t-64.5 104.5z" />
<glyph unicode="&#x202f;" horiz-adv-x="382" />
<glyph unicode="&#x2039;" horiz-adv-x="534" d="M-16 567q216 147 358 379l150 -149q-61 -124 -170 -230q110 -107 170 -229l-150 -150q-145 237 -358 379z" />
<glyph unicode="&#x203a;" horiz-adv-x="534" d="M43 338q64 131 170 229q-105 97 -170 230l150 149q136 -227 356 -379q-217 -147 -356 -379z" />
<glyph unicode="&#x205f;" horiz-adv-x="477" />
<glyph unicode="&#x2122;" horiz-adv-x="890" d="M41 1212v95h307v-97h-102v-282h-105v284h-100zM379 928l31 379h86l108 -213l107 213h86l30 -379h-104l-14 172l-86 -172h-43l-84 168l-13 -168h-104z" />
<glyph unicode="&#x25fc;" horiz-adv-x="931" d="M0 0v932h932v-932h-932z" />
</font>
</defs>
</svg>
