<?xml version="1.0" encoding="utf-8"?>
<!-- Generator: Adobe Illustrator 17.1.0, SVG Export Plug-In . SVG Version: 6.00 Build 0)  -->
<!DOCTYPE svg PUBLIC "-//W3C//DTD SVG 1.1//EN" "http://www.w3.org/Graphics/SVG/1.1/DTD/svg11.dtd">
<svg version="1.1" id="Layer_1" xmlns="http://www.w3.org/2000/svg" xmlns:xlink="http://www.w3.org/1999/xlink" x="0px" y="0px"
	 viewBox="0 0 183 105.4" style="enable-background:new 0 0 183 105.4;" xml:space="preserve">
<style type="text/css">
	.st0{fill:#DEDDDD;}
</style>
<g>
	<path class="st0" d="M102.1,104.7L97,91.1H75.6l-5,13.6H55.7l25.6-65.6l10.1-2.2l0.9,2.2l25.6,65.6H102.1z M88.4,66.1
		c-0.7-1.8-1.4-4.3-2-6.6h-0.2c-0.5,2.3-1.3,4.8-2,6.6l-4.7,13.1h13.7L88.4,66.1z"/>
	<path class="st0" d="M21.9,104.7H0V39.6h21.9c18.8,0,34.9,12.2,34.9,32.5C56.8,92.5,40.7,104.7,21.9,104.7z M20.1,53.2h-4.9v37.9
		h4.9c11.3,0,20.9-6.3,20.9-19C41,59.5,31.4,53.2,20.1,53.2z"/>
	<path class="st0" d="M175,105.4l-25.3-27.7c-4.1-4.5-8.7-10-12.1-14.3l-0.2,0.1c0.2,4.6,0.3,9.6,0.3,13.7v27.5h-15.8V39.6h12.8
		l22,24.3c3.1,3.4,7.7,8.7,10.6,12.4l0.2-0.1c-0.2-3.9-0.3-8.1-0.3-12.1V39.6H183v65.8H175z"/>
	<g>
		<path class="st0" d="M135.2,27.4l-22.7,5c-0.5,0.1-1.1-0.2-1.2-0.8l-5.6-25.4c-0.1-0.5,0.2-1.1,0.8-1.2l22.7-5
			c0.9-0.2,1.9,0.5,2.1,1.6l5.2,23.4C136.7,26.1,136.1,27.2,135.2,27.4z"/>
		<path class="st0" d="M107.9,30.3L63,40.3c-0.5,0.1-1.1-0.2-1.2-0.8L57.5,20c-0.1-0.5,0.2-1.1,0.8-1.2l44.9-9.9
			c0.5-0.1,1.1,0.2,1.2,0.8l4.3,19.5C108.8,29.7,108.5,30.2,107.9,30.3z"/>
		<path class="st0" d="M59,36.1c0.1,0.5-0.2,1.1-0.8,1.2l-13.1,2.9c-0.9,0.2-1.8-0.5-2-1.6L41,28.8c-0.2-1.1,0.3-2.1,1.1-2.3
			l13.1-2.9c0.5-0.1,1.1,0.2,1.2,0.8L59,36.1z"/>
	</g>
</g>
</svg>
